<?xml version="1.0" encoding="utf-8"?>
<!-- Generator: Adobe Illustrator 24.1.0, SVG Export Plug-In . SVG Version: 6.00 Build 0)  -->
<svg version="1.1" id="Calque_1" xmlns="http://www.w3.org/2000/svg" xmlns:xlink="http://www.w3.org/1999/xlink" x="0px" y="0px"
	 viewBox="0 0 566.9 566.9" style="enable-background:new 0 0 566.9 566.9;" xml:space="preserve">
<style type="text/css">
	.st0{fill:#9D9D9C;}
	.st1{fill:#FFFFFF;}
	.st2{fill:none;stroke:#FFFFFF;stroke-width:2.8346;stroke-miterlimit:10;}
</style>
<g>
	<path class="st0" d="M218.8,215.9c-3.4,3.4-3.3,8.4,0.3,12c3.6,3.6,8.7,3.8,12.1,0.3c3.4-3.4,3.2-8.2-0.5-11.9
		C227,212.7,222.2,212.4,218.8,215.9z"/>
	<path class="st0" d="M105.6,202.5c-46.2,46.2-46.2,121.2,0,167.5L273,202.5C226.8,156.3,151.8,156.3,105.6,202.5z M199.5,266.5
		c-4.2,4.2-8.6,5.5-13.7,4.8v-4.9c4,0.6,7.3-0.2,10.5-3.4c3.1-3.1,3.8-6.7,1.4-9.1c-6.8-6.8-16.3,9.5-25.8,0
		c-4.5-4.5-3.5-10.7,1.2-15.5c3.5-3.5,7.7-4.8,11.7-4.4v4.9c-3.4-0.3-6,0.5-8.4,2.9c-2.9,2.9-3.4,6-1.1,8.2c6.2,6.2,16-9.9,25.8-0.1
		C205.7,254.7,205,261,199.5,266.5z M215.1,250.1l-15-15l-4.5,4.5l-3.1-3.1l4.5-4.5l-7.6-7.6l3.4-3.4l7.6,7.6l4.5-4.5l3.1,3.1
		l-4.5,4.5l15,15L215.1,250.1z M239.5,225.6l-2.4-2.4c0.5,3.1-0.6,6.3-3.2,8.9c-5,5-13,4.7-18.3-0.6c-5.3-5.3-5.6-13.3-0.6-18.3
		c2.6-2.6,5.8-3.7,8.9-3.2l-2.5-2.5l3.5-3.5l18.1,18.1L239.5,225.6z M229.9,199l3.4-3.4l2.1,2.1c-0.6-2.6,0.2-5.2,2.4-7.4
		c1.8-1.8,3.9-2.7,6.6-2.5l0.1,4.6c-1.6,0-2.8,0.5-4,1.7c-2.6,2.6-2.7,6,0.6,9.3l10.3,10.3l-3.4,3.4L229.9,199z"/>
</g>
<path class="st0" d="M279,445.1c-46.2,46.2-121.2,46.2-167.5,0L279,277.6C325.2,323.9,325.2,398.9,279,445.1z"/>
<g>
	<path d="M360.9,182.8c3.6,3.6,8.6,3.8,12.1,0.3c3.4-3.4,3.2-8.2-0.5-11.8c-3.7-3.7-8.5-3.9-11.9-0.5
		C357.2,174.2,357.3,179.2,360.9,182.8z"/>
	<path d="M421.2,119.4c-3.3-2.6-7-2.4-9.9,0.6c-3,3-3.4,7-1.1,10.4L421.2,119.4z"/>
	<path d="M349.9,190.7c-3.3-2.6-7-2.4-9.9,0.6c-3,3-3.4,7-1.1,10.4L349.9,190.7z"/>
	<path d="M315.2,256.5l133-133l-36.5-36.4L117.1,381.6l17.3,17.3L279,254.4l200,200l17-17L315.2,256.5z M408.2,116.8
		c5-5,12.3-4.8,17.4,0.3c0.5,0.5,1.1,1.1,1.6,2L413,133.3c3.5,2.5,7.7,2.1,11-1.1c2-2,3.1-4.5,2.9-7.1l4.5,0
		c0.3,3.8-1.2,7.5-4.1,10.3c-5.4,5.4-13.6,5.5-19,0.1C402.9,130.2,402.9,122,408.2,116.8z M389.1,136.6l2.1,2.1
		c-0.6-2.6,0.2-5.2,2.4-7.4c1.8-1.8,3.9-2.7,6.6-2.5l0.1,4.6c-1.6,0-2.8,0.5-4,1.7c-2.6,2.6-2.7,6,0.6,9.3l10.3,10.3l-3.4,3.4
		L385.7,140L389.1,136.6z M370.3,140.2l7.6,7.6l4.5-4.5l3.1,3.1l-4.5,4.5l15,15l-3.4,3.4l-15-15l-4.5,4.5l-3.1-3.1l4.5-4.5l-7.6-7.6
		L370.3,140.2z M366.7,159l18.1,18.1l-3.5,3.5l-2.4-2.4c0.5,3-0.6,6.2-3.2,8.8c-5,5-13,4.7-18.2-0.6s-5.6-13.3-0.6-18.3
		c2.6-2.6,5.8-3.7,8.9-3.2l-2.5-2.5L366.7,159z M348.9,156.6l11.1,0.7l0,3.1l-9.1,0.8l-0.9,9.1h-3l-0.7-11.1L348.9,156.6z
		 M354.3,188.4c0.5,0.5,1.1,1.1,1.6,2l-14.2,14.2c3.5,2.5,7.7,2.1,11-1.1c2-2,3.1-4.5,2.9-7.1l4.5,0c0.3,3.8-1.2,7.5-4.1,10.3
		c-5.4,5.4-13.6,5.5-19,0.1c-5.3-5.3-5.3-13.5-0.1-18.7C341.8,183.1,349.1,183.3,354.3,188.4z M333.3,177l-1.1,11.1l-3.1,0
		l-1.1-11.1L333.3,177z M302.5,204.9l11.5,11.5c-0.4-3,0.6-6.1,3-8.5c4.1-4.1,10.1-4.1,14.3,0.2l11.2,11.2l-3.4,3.4l-10.6-10.6
		c-2.8-2.8-6.6-2.8-9.4-0.1s-2.7,6.7,0,9.4l10.6,10.6l-3.4,3.4l-27.2-27.2L302.5,204.9z M310.1,251.7L287,228.6l-9,9l-3.3-3.3
		l21.5-21.5l3.3,3.3l-9,9l23.2,23.2L310.1,251.7z"/>
</g>
</svg>
